<?xml version="1.0" encoding="utf-8"?>
<svg xmlns="http://www.w3.org/2000/svg" viewBox="1.362 -1.661 128 128" width="128px" height="128px">
  <rect x="1.362" y="-1.661" width="128" height="128" style="fill: rgb(0, 0, 0); stroke: rgb(0, 0, 0);"/>
  <path d="M 26.241 47.406 C 52.641 47.406 79.041 47.406 106.241 47.406 C 106.241 57.306 106.241 67.206 106.241 77.406 C 79.841 77.406 53.441 77.406 26.241 77.406 C 26.241 67.506 26.241 57.606 26.241 47.406 Z" fill="#1C1C1C" style="stroke-width: 1;"/>
  <path d="M 26.241 47.406 C 52.641 47.406 79.041 47.406 106.241 47.406 C 106.241 57.306 106.241 67.206 106.241 77.406 C 79.841 77.406 53.441 77.406 26.241 77.406 C 26.241 67.506 26.241 57.606 26.241 47.406 Z M 31.429 54.469 C 29.673 58.811 29.569 62.789 30.241 67.406 C 32.298 71.52 33.977 73.747 38.241 75.406 C 40.945 75.721 40.945 75.721 43.924 75.697 C 45.637 75.716 45.637 75.716 47.384 75.736 C 48.613 75.738 49.842 75.74 51.108 75.742 C 52.376 75.749 53.643 75.756 54.949 75.762 C 57.631 75.773 60.312 75.778 62.994 75.777 C 66.419 75.777 69.844 75.804 73.269 75.838 C 76.549 75.866 79.829 75.865 83.108 75.867 C 84.946 75.889 84.946 75.889 86.821 75.911 C 93.218 75.877 97.439 75.845 102.241 71.406 C 105.18 67.197 104.753 62.337 104.241 57.406 C 102.503 53.105 100.32 51.476 96.241 49.406 C 93.435 48.957 93.435 48.957 90.429 49.018 C 89.284 49.009 88.139 48.999 86.96 48.989 C 85.119 48.999 85.119 48.999 83.241 49.008 C 81.973 49.005 80.704 49.002 79.397 48.999 C 76.717 48.997 74.038 49.001 71.358 49.015 C 67.932 49.032 64.506 49.022 61.08 49.004 C 57.8 48.991 54.521 49 51.241 49.008 C 50.014 49.002 48.787 48.996 47.522 48.989 C 46.378 48.999 45.233 49.008 44.054 49.018 C 43.05 49.021 42.045 49.023 41.011 49.025 C 36.834 49.6 34.186 51.332 31.429 54.469 Z" fill="#000000" style="stroke-width: 1;"/>
  <path d="M 90.116 57.094 C 91.186 57.056 92.256 57.019 93.358 56.981 C 96.241 57.406 96.241 57.406 98.171 59.258 C 99.241 61.406 99.241 61.406 98.491 64.094 C 97.241 66.406 97.241 66.406 96.241 67.406 C 94.243 67.505 92.242 67.536 90.241 67.531 C 89.148 67.534 88.055 67.536 86.929 67.539 C 84.241 67.406 84.241 67.406 83.241 66.406 C 83.108 64.594 83.108 64.594 83.116 62.406 C 83.114 61.684 83.111 60.963 83.108 60.219 C 83.404 56.182 86.773 57.17 90.116 57.094 Z" fill="#848484" style="stroke-width: 1;"/>
  <path d="M 70.241 55.406 C 73.179 56.906 73.179 56.906 75.241 58.406 C 74.341 59.751 73.42 61.082 72.491 62.406 C 71.981 63.149 71.47 63.891 70.944 64.656 C 70.101 65.523 70.101 65.523 69.241 66.406 C 67.921 66.406 66.601 66.406 65.241 66.406 C 63.538 64.656 63.538 64.656 61.991 62.406 C 61.47 61.664 60.95 60.921 60.413 60.156 C 60.026 59.579 59.64 59.001 59.241 58.406 C 63.044 55.261 65.265 54.883 70.241 55.406 Z" fill="#DCDCDC" style="stroke-width: 1;"/>
  <path d="M 41.241 56.406 C 41.901 56.406 42.561 56.406 43.241 56.406 C 43.241 60.366 43.241 64.326 43.241 68.406 C 41.921 67.746 40.601 67.086 39.241 66.406 C 37.917 66.038 36.585 65.694 35.241 65.406 C 35.241 63.426 35.241 61.446 35.241 59.406 C 36.046 59.097 36.85 58.788 37.679 58.469 C 40.132 57.643 40.132 57.643 41.241 56.406 Z" fill="#E2E2E2" style="stroke-width: 1;"/>
  <path d="M 94.241 58.406 C 95.231 58.406 96.221 58.406 97.241 58.406 C 98.366 60.719 98.366 60.719 99.241 63.406 C 98.251 64.891 98.251 64.891 97.241 66.406 C 96.251 66.406 95.261 66.406 94.241 66.406 C 94.241 63.766 94.241 61.126 94.241 58.406 Z" fill="#737373" style="stroke-width: 1;"/>
  <path d="M 48.241 57.406 C 48.901 57.736 49.561 58.066 50.241 58.406 C 50.241 61.046 50.241 63.686 50.241 66.406 C 49.251 66.406 48.261 66.406 47.241 66.406 C 47.144 60.254 47.144 60.254 47.241 58.406 C 47.571 58.076 47.901 57.746 48.241 57.406 Z" fill="#C8C8C8" style="stroke-width: 1;"/>
</svg>