<?xml version="1.0" encoding="UTF-8"?>
<svg version="1.1" xmlns="http://www.w3.org/2000/svg" width="80" height="30">
<path d="M0 0 C26.4 0 52.8 0 80 0 C80 9.9 80 19.8 80 30 C53.6 30 27.2 30 0 30 C0 20.1 0 10.2 0 0 Z " fill="#1C1C1C" transform="translate(0,0)"/>
<path d="M0 0 C26.4 0 52.8 0 80 0 C80 9.9 80 19.8 80 30 C53.6 30 27.2 30 0 30 C0 20.1 0 10.2 0 0 Z M5.1875 7.0625 C3.43224601 11.40444408 3.3276642 15.38230909 4 20 C6.05660307 24.11320615 7.73589011 26.34041292 12 28 C14.70408523 28.31508713 14.70408523 28.31508713 17.68310547 28.29052734 C19.39540848 28.3096669 19.39540848 28.3096669 21.14230347 28.32919312 C22.3715152 28.33141876 23.60072693 28.33364441 24.8671875 28.3359375 C26.13466827 28.3425943 27.40214905 28.3492511 28.70803833 28.35610962 C31.38964886 28.36623669 34.07085397 28.37179174 36.75244141 28.37060547 C40.17786261 28.3704024 43.60245304 28.39769594 47.02767754 28.43214989 C50.30748263 28.4598215 53.58728155 28.45856956 56.8671875 28.4609375 C58.7049324 28.48249405 58.7049324 28.48249405 60.57980347 28.50448608 C66.97719956 28.47019137 71.19756185 28.43887603 76 24 C78.93863531 19.79106125 78.51225915 14.93049435 78 10 C76.26133399 5.69908934 74.07885192 4.06961721 70 2 C67.19397008 1.55104664 67.19397008 1.55104664 64.1875 1.61181641 C63.0428125 1.60235992 61.898125 1.59290344 60.71875 1.5831604 C58.87796875 1.59226944 58.87796875 1.59226944 57 1.6015625 C55.7315625 1.59869232 54.463125 1.59582214 53.15625 1.59286499 C50.47624895 1.59082482 47.79707075 1.59483815 45.1171875 1.60888672 C41.69067434 1.62597859 38.26486623 1.61613176 34.83837891 1.59816933 C31.55889436 1.58469192 28.27949377 1.59414177 25 1.6015625 C23.7728125 1.59548981 22.545625 1.58941711 21.28125 1.5831604 C20.1365625 1.59261688 18.991875 1.60207336 17.8125 1.61181641 C16.80832031 1.61420319 15.80414063 1.61658997 14.76953125 1.61904907 C10.59242456 2.19361297 7.94448373 3.92524265 5.1875 7.0625 Z " fill="#000000" transform="translate(0,0)"/>
<path d="M0 0 C1.06992188 -0.03738281 2.13984375 -0.07476562 3.2421875 -0.11328125 C6.125 0.3125 6.125 0.3125 8.0546875 2.1640625 C9.125 4.3125 9.125 4.3125 8.375 7 C7.125 9.3125 7.125 9.3125 6.125 10.3125 C4.12700428 10.41123816 2.12542842 10.44221799 0.125 10.4375 C-0.968125 10.44007812 -2.06125 10.44265625 -3.1875 10.4453125 C-5.875 10.3125 -5.875 10.3125 -6.875 9.3125 C-7.0078125 7.5 -7.0078125 7.5 -7 5.3125 C-7.00257812 4.590625 -7.00515625 3.86875 -7.0078125 3.125 C-6.71202931 -0.91157059 -3.34365754 0.07617445 0 0 Z " fill="#848484" transform="translate(63.875,9.6875)"/>
<path d="M0 0 C2.9375 1.5 2.9375 1.5 5 3 C4.09970429 4.34444159 3.17911978 5.67531438 2.25 7 C1.73953125 7.7425 1.2290625 8.485 0.703125 9.25 C-0.13992187 10.11625 -0.13992187 10.11625 -1 11 C-2.32 11 -3.64 11 -5 11 C-6.703125 9.25 -6.703125 9.25 -8.25 7 C-8.77078125 6.2575 -9.2915625 5.515 -9.828125 4.75 C-10.21484375 4.1725 -10.6015625 3.595 -11 3 C-7.19748013 -0.14519149 -4.97629098 -0.5238201 0 0 Z " fill="#DCDCDC" transform="translate(44,8)"/>
<path d="M0 0 C0.66 0 1.32 0 2 0 C2 3.96 2 7.92 2 12 C0.68 11.34 -0.64 10.68 -2 10 C-3.3242287 9.63215869 -4.65613912 9.28797019 -6 9 C-6 7.02 -6 5.04 -6 3 C-5.195625 2.690625 -4.39125 2.38125 -3.5625 2.0625 C-1.10919595 1.23664655 -1.10919595 1.23664655 0 0 Z " fill="#E2E2E2" transform="translate(15,9)"/>
<path d="M0 0 C0.99 0 1.98 0 3 0 C4.125 2.3125 4.125 2.3125 5 5 C4.01 6.485 4.01 6.485 3 8 C2.01 8 1.02 8 0 8 C0 5.36 0 2.72 0 0 Z " fill="#737373" transform="translate(68,11)"/>
<path d="M0 0 C0.66 0.33 1.32 0.66 2 1 C2 3.64 2 6.28 2 9 C1.01 9 0.02 9 -1 9 C-1.09765625 2.84765625 -1.09765625 2.84765625 -1 1 C-0.67 0.67 -0.34 0.34 0 0 Z " fill="#C8C8C8" transform="translate(22,10)"/>
</svg>
